<?xml version="1.0" encoding="UTF-8"?>
<svg xmlns="http://www.w3.org/2000/svg" width="128" height="128" viewBox="0 0 128 128" fill="none">
  <defs>
  <linearGradient id="g1" x1="0" y1="0" x2="1" y2="1">
    <stop offset="0%" stop-color="#fff6d2"/>
    <stop offset="38%" stop-color="#f0d78a"/>
    <stop offset="72%" stop-color="#d4af5a"/>
    <stop offset="100%" stop-color="#8f6a28"/>
  </linearGradient>
  <linearGradient id="g2" x1="0" y1="1" x2="1" y2="0">
    <stop offset="0%" stop-color="#c9a45c"/>
    <stop offset="50%" stop-color="#fff1c4"/>
    <stop offset="100%" stop-color="#b8924a"/>
  </linearGradient>
  <radialGradient id="g3" cx="50%" cy="40%" r="60%">
    <stop offset="0%" stop-color="#fff6d2"/>
    <stop offset="55%" stop-color="#e8d5a3"/>
    <stop offset="100%" stop-color="#a67c2e"/>
  </radialGradient>
</defs>
  <g transform="translate(128,0) scale(-1,1)">
  <g stroke-linecap="butt" stroke-linejoin="miter" fill="none">
    <!-- hairline double L-rails (sit on the card edge) -->
    <path d="M2.4,128 L2.4,12 Q2.4,2.4 12,2.4 L128,2.4" stroke="url(#g1)" stroke-width="1.7"/>
    <path d="M6.6,128 L6.6,16 Q6.6,6.6 16,6.6 L128,6.6" stroke="url(#g2)" stroke-width="0.65"/>

    <!-- lattice ticks in the 4px channel between rails -->
    <path d="M3.2,14 L7.4,10.8 M14,3.2 L10.8,7.4 M3.2,21 L7.4,17.8 M21,3.2 L17.8,7.4 M3.2,28 L7.4,24.8 M28,3.2 L24.8,7.4 M3.2,35 L7.4,31.8 M35,3.2 L31.8,7.4 M3.2,42 L7.4,38.8 M42,3.2 L38.8,7.4 M3.2,49 L7.4,45.8 M49,3.2 L45.8,7.4 M3.2,56 L7.4,52.8 M56,3.2 L52.8,7.4 M3.2,63 L7.4,59.8 M63,3.2 L59.8,7.4 M3.2,70 L7.4,66.8 M70,3.2 L66.8,7.4 M3.2,77 L7.4,73.8 M77,3.2 L73.8,7.4 M3.2,84 L7.4,80.8 M84,3.2 L80.8,7.4 M3.2,91 L7.4,87.8 M91,3.2 L87.8,7.4 M3.2,98 L7.4,94.8 M98,3.2 L94.8,7.4 M3.2,105 L7.4,101.8 M105,3.2 L101.8,7.4 M3.2,112 L7.4,108.8 M112,3.2 L108.8,7.4" stroke="#f0d78a" stroke-width="0.45" opacity="0.85"/>

    <!-- karakusa scrolls clustered at the crook -->
    <path d="M18,34 C10,34 9,22 16,18 C23,14 30,22 26,28 C23,32 18,31 19,25"
          stroke="url(#g1)" stroke-width="0.95"/>
    <path d="M34,18 C34,10 22,9 18,16 C14,23 22,30 28,26 C32,23 31,18 25,19"
          stroke="url(#g2)" stroke-width="0.9"/>
    <path d="M40,14 C50,7 62,12 66,22" stroke="#e8d5a3" stroke-width="0.7"/>
    <path d="M14,40 C7,50 12,62 22,66" stroke="#e8d5a3" stroke-width="0.7"/>
    <path d="M48,12 C56,12 60,17 58,22 C56,27 48,26 47,21" stroke="#d4af5a" stroke-width="0.65"/>
    <path d="M12,48 C12,56 17,60 22,58 C27,56 26,48 21,47" stroke="#d4af5a" stroke-width="0.65"/>

    <!-- inner vine along arms, close to the rail -->
    <path d="M28,9.5 C40,5 52,13 64,8 C76,3 90,11 104,7.5 C112,6 120,9 126,8"
          stroke="url(#g1)" stroke-width="0.7"/>
    <path d="M9.5,28 C5,40 13,52 8,64 C3,76 11,90 7.5,104 C6,112 9,120 8,126"
          stroke="url(#g1)" stroke-width="0.7"/>

    <!-- tiny tomoe -->
    <path d="M36,24 C39,21 43,24 42,27 C41,29 37,28 36,25" stroke="#fff6d2" stroke-width="0.55"/>
    <path d="M24,36 C21,39 24,43 27,42 C29,41 28,37 25,36" stroke="#fff6d2" stroke-width="0.55"/>
  </g>
  <g ><ellipse cx="22.00" cy="18.64" rx="2.72" ry="4.16" transform="rotate(-90 22 22)" fill="url(#g3)" fill-opacity="0.28" stroke="#fff6d2" stroke-width="0.55"/><ellipse cx="25.20" cy="20.96" rx="2.72" ry="4.16" transform="rotate(-18 22 22)" fill="url(#g3)" fill-opacity="0.28" stroke="#fff6d2" stroke-width="0.55"/><ellipse cx="23.97" cy="24.72" rx="2.72" ry="4.16" transform="rotate(54 22 22)" fill="url(#g3)" fill-opacity="0.28" stroke="#fff6d2" stroke-width="0.55"/><ellipse cx="20.03" cy="24.72" rx="2.72" ry="4.16" transform="rotate(126 22 22)" fill="url(#g3)" fill-opacity="0.28" stroke="#fff6d2" stroke-width="0.55"/><ellipse cx="18.80" cy="20.96" rx="2.72" ry="4.16" transform="rotate(198 22 22)" fill="url(#g3)" fill-opacity="0.28" stroke="#fff6d2" stroke-width="0.55"/>
    <circle cx="22" cy="22" r="0.96" fill="none" stroke="#fff6d2" stroke-width="0.5"/>
    <circle cx="22" cy="22" r="0.36" fill="#f0d78a"/>
  </g>
  <g ><ellipse cx="58" cy="14.46" rx="1.54" ry="3.41" transform="rotate(-90 58 16)" fill="url(#g1)" fill-opacity="0.22" stroke="#fff1c4" stroke-width="0.5" opacity="0.95"/><ellipse cx="58" cy="14.46" rx="1.54" ry="3.41" transform="rotate(30 58 16)" fill="url(#g1)" fill-opacity="0.22" stroke="#fff1c4" stroke-width="0.5" opacity="0.95"/><ellipse cx="58" cy="14.46" rx="1.54" ry="3.41" transform="rotate(150 58 16)" fill="url(#g1)" fill-opacity="0.22" stroke="#fff1c4" stroke-width="0.5" opacity="0.95"/><ellipse cx="58" cy="15.01" rx="0.99" ry="2.20" transform="rotate(-30 58 16)" fill="none" stroke="#d4af5a" stroke-width="0.4" opacity="0.9"/><ellipse cx="58" cy="15.01" rx="0.99" ry="2.20" transform="rotate(90 58 16)" fill="none" stroke="#d4af5a" stroke-width="0.4" opacity="0.9"/><ellipse cx="58" cy="15.01" rx="0.99" ry="2.20" transform="rotate(210 58 16)" fill="none" stroke="#d4af5a" stroke-width="0.4" opacity="0.9"/>
    <circle cx="58" cy="16" r="0.55" fill="none" stroke="#fff6d2" stroke-width="0.45"/>
  </g>
  <g ><ellipse cx="16" cy="56.46" rx="1.54" ry="3.41" transform="rotate(-90 16 58)" fill="url(#g1)" fill-opacity="0.22" stroke="#fff1c4" stroke-width="0.5" opacity="0.95"/><ellipse cx="16" cy="56.46" rx="1.54" ry="3.41" transform="rotate(30 16 58)" fill="url(#g1)" fill-opacity="0.22" stroke="#fff1c4" stroke-width="0.5" opacity="0.95"/><ellipse cx="16" cy="56.46" rx="1.54" ry="3.41" transform="rotate(150 16 58)" fill="url(#g1)" fill-opacity="0.22" stroke="#fff1c4" stroke-width="0.5" opacity="0.95"/><ellipse cx="16" cy="57.01" rx="0.99" ry="2.20" transform="rotate(-30 16 58)" fill="none" stroke="#d4af5a" stroke-width="0.4" opacity="0.9"/><ellipse cx="16" cy="57.01" rx="0.99" ry="2.20" transform="rotate(90 16 58)" fill="none" stroke="#d4af5a" stroke-width="0.4" opacity="0.9"/><ellipse cx="16" cy="57.01" rx="0.99" ry="2.20" transform="rotate(210 16 58)" fill="none" stroke="#d4af5a" stroke-width="0.4" opacity="0.9"/>
    <circle cx="16" cy="58" r="0.55" fill="none" stroke="#fff6d2" stroke-width="0.45"/>
  </g>
  <path d="M42,11.4 L44.6,14 L42,16.6 L39.4,14 Z" fill="none" stroke="url(#g1)" stroke-width="0.55"/>
  <path d="M14,39.4 L16.6,42 L14,44.6 L11.4,42 Z" fill="none" stroke="url(#g1)" stroke-width="0.55"/>
  <path d="M78,7.9 L80.1,10 L78,12.1 L75.9,10 Z" fill="none" stroke="url(#g1)" stroke-width="0.5"/>
  <path d="M10,75.9 L12.1,78 L10,80.1 L7.9,78 Z" fill="none" stroke="url(#g1)" stroke-width="0.5"/>
  <circle cx="50" cy="10" r="0.85" fill="#fff6d2"/>
  <circle cx="10" cy="50" r="0.85" fill="#fff6d2"/>
  <circle cx="92" cy="10" r="0.7" fill="#f0d78a"/>
  <circle cx="10" cy="92" r="0.7" fill="#f0d78a"/>
</g>
</svg>
